<svg xmlns:xlink="http://www.w3.org/1999/xlink" preserveAspectRatio="xMidYMid meet" data-bbox="20.151 24.968 159.951 149.938" viewBox="20.151 24.968 159.951 149.938" height="200" width="200" xmlns="http://www.w3.org/2000/svg" data-type="color" role="presentation" aria-hidden="true"><defs><style>#comp-l22d5rxc svg [data-color="1"] {fill: #FFD700;}</style></defs>
    <g>
        <path d="M149.533 62.548c-.934 2.902-1.623 6.413.46 8.476 2.089 2.069 5.911 2.068 8.895 2.338.799.072-19.706 6.811-22.387 14.992-2.081 6.351 3.049 11.631 7.294 14.53 4.226 2.885 9.119 4.81 13.883 6.858.653.281-15.566-.567-23.493.721-5.726.93-10.299 4.205-12.602 9.842-1.892 4.63-3.663 15.265-3.896 14.657-1.656-4.316-5.546-16.919-12.638-13.555-4.732 2.245-6.16 9.172-7.071 13.387-.807 3.732-3.502 11.924-3.636 11.304-1.622-7.522-2.152-19.379-10.587-21.864-7.994-2.355-24.104 12.409-23.532 11.664 2.631-3.428 5.806-6.474 8.607-9.775 2.996-3.531 7.141-8.404 7.217-12.908.2-11.967-28.613-.744-27.87-1.222 5.874-3.784 13.142-6.247 18.042-11.548 6.62-7.162-4.458-18.115-3.495-17.904 2.048.449 3.755 1.597 5.791 2.067 1.419.328 3.383.444 4.037-1.478.268-.787-.067-1.828-.335-2.6.773-.731 11.775-.158 14.346-2.957 3.695-4.023.609-16.186 1.088-15.64 1.99 2.271 5.857 4.287 9.292 3.898 6.002-.68 5.278-11.37 5.778-10.872 2.188 2.18 4.865 5.465 8.592 5.142 4.653-.403 8.649-6.294 10.542-10.16 3.946-8.057 3.845-16.739 4.725-24.951.074-.688 3.495 14.774 6.972 21.223 4.263 7.905 13.648 8.455 22.041 2.256.658-.489-4.578 9.478-6.06 14.079zm-46.599 112.358 11.079-2.124-8.416-43.89-2.663 46.014zm14.976-20.051 6.215-3.977-15.755-24.619 9.54 28.596zm-97.759-20.568 6.146 10.89 43.14-24.346-49.286 13.456zm27.15-42.764-.315 2.799 11.086 1.247-10.771-4.046zm68.493-52.311-3.136.174.69 12.424 2.446-12.598zm32.263-9.741-2.21-1.088-4.309 8.754 6.519-7.666zm-.845 101.903 1.434-2.002-7.932-5.681 6.498 7.683zm-40.883-91.626-2.791 1.441 5.709 11.056-2.918-12.497zm54.501 51.823-.176-4.319-17.108.698 17.284 3.621zm14.707-11.967-1.279-4.129-16.355 5.067 17.634-.938zm-25.696 79.702 2.419-3.581-14.195-9.566 11.776 13.147zM82.06 136.239a2.422 2.422 0 1 0 0 4.843 2.422 2.422 0 0 0 0-4.843zm51.588-12.352a2.422 2.422 0 1 0 0 4.843 2.422 2.422 0 0 0 0-4.843zM69.707 53.165a2.422 2.422 0 1 0 0 4.843 2.422 2.422 0 0 0 0-4.843zm31.971-24.705a2.422 2.422 0 1 0 0 4.843 2.422 2.422 0 0 0 0-4.843zm-5.329 17.439a2.422 2.422 0 1 0 0 4.843 2.422 2.422 0 0 0 0-4.843zm-36.33 21.313a2.422 2.422 0 1 0 0 4.843 2.422 2.422 0 0 0 0-4.843zm-23.735 47.472a2.422 2.422 0 1 0 0 4.843 2.422 2.422 0 0 0 0-4.843zm141.445-26.643a2.422 2.422 0 1 0 0 4.843 2.422 2.422 0 0 0 0-4.843zM152.54 34.273a2.422 2.422 0 1 0 0 4.843 2.422 2.422 0 0 0 0-4.843zm-2.906 80.895a2.422 2.422 0 1 0 0 4.843 2.422 2.422 0 0 0 0-4.843zm-83.698 29.671a4.85 4.85 0 1 0 0 9.7 4.85 4.85 0 0 0 0-9.7zm100.271-27.611a4.85 4.85 0 1 0 0 9.7 4.85 4.85 0 0 0 0-9.7zm-33.424 17.439a4.85 4.85 0 1 0 0 9.7 4.85 4.85 0 0 0 0-9.7z" fill="#FFD700" data-color="1"></path>
    </g>
</svg>