<svg xmlns:xlink="http://www.w3.org/1999/xlink" preserveAspectRatio="xMidYMid meet" data-bbox="52 31.5 96 137" viewBox="52 31.5 96 137" height="200" width="200" xmlns="http://www.w3.org/2000/svg" data-type="color" role="presentation" aria-hidden="true">
    <g>
        <path d="M113.508 168.5H86.493l-5.925-10.489-13.864 7.815L52 125.84l9.882-15.696a115.52 115.52 0 0 1-.56-11.358c0-35.788 34.569-63.984 36.042-65.167l2.635-2.119 2.636 2.119c1.472 1.182 36.041 29.378 36.041 65.167 0 3.82-.186 7.631-.558 11.358L148 125.84l-14.704 39.987-13.866-7.815-5.922 10.488zm-22.1-8.5h17.184l7.642-13.529 12.57 7.086 9.825-26.721-9.229-14.662.168-1.489c.44-3.883.664-7.885.664-11.899 0-26.353-22.424-49.104-30.229-56.223-7.801 7.131-30.236 29.928-30.236 56.223 0 3.977.225 7.982.666 11.901l.168 1.486-9.229 14.662 9.825 26.719 12.568-7.083L91.408 160z" fill="#2F54DD" data-color="1"></path>
        <path fill="#2F54DD" d="M109.99 86.986c0 5.552-4.473 10.053-9.99 10.053s-9.99-4.5-9.99-10.053c0-5.552 4.473-10.053 9.99-10.053s9.99 4.5 9.99 10.053z" data-color="1"></path>
    </g>
</svg>